<svg width="25" height="24" viewBox="0 0 25 24" fill="none" xmlns="http://www.w3.org/2000/svg">
<g clip-path="url(#clip0_1_31)">
<path d="M16.7939 8.00003V6.03337C16.7939 5.42053 16.6723 4.8137 16.4359 4.24751C16.1996 3.68132 15.8533 3.16687 15.4166 2.73353C14.98 2.30019 14.4616 1.95645 13.8911 1.72193C13.3206 1.48741 12.7091 1.3667 12.0916 1.3667C11.4741 1.3667 10.8626 1.48741 10.2921 1.72193C9.7216 1.95645 9.20322 2.30019 8.76657 2.73353C8.32992 3.16687 7.98355 3.68132 7.74724 4.24751C7.51093 4.8137 7.3893 5.42053 7.3893 6.03337V10.7C7.3893 10.8768 7.46008 11.0464 7.58605 11.1714C7.71203 11.2965 7.8829 11.3667 8.06106 11.3667C8.23922 11.3667 8.41008 11.2965 8.53606 11.1714C8.66204 11.0464 8.73281 10.8768 8.73281 10.7V9.33337H14.1069V8.00003H8.73281V6.03337C8.73281 5.14931 9.08668 4.30146 9.71658 3.67634C10.3465 3.05122 11.2008 2.70003 12.0916 2.70003C12.9824 2.70003 13.8367 3.05122 14.4666 3.67634C15.0965 4.30146 15.4504 5.14931 15.4504 6.03337V10.6667C15.4504 10.8435 15.5211 11.0131 15.6471 11.1381C15.7731 11.2631 15.944 11.3334 16.1221 11.3334C16.3003 11.3334 16.4712 11.2631 16.5971 11.1381C16.7231 11.0131 16.7939 10.8435 16.7939 10.6667V9.33337H20.1527V21.3334H4.03052V9.33337H6.04579V8.00003H2.68701V21.3934C2.68701 21.7311 2.82219 22.055 3.06281 22.2938C3.30343 22.5325 3.62978 22.6667 3.97007 22.6667H20.2131C20.5534 22.6667 20.8798 22.5325 21.1204 22.2938C21.361 22.055 21.4962 21.7311 21.4962 21.3934V8.00003H16.7939Z" fill="#292647"/>
</g>
<defs>
<clipPath id="clip0_1_31">
<rect width="24.1832" height="24" fill="white"/>
</clipPath>
</defs>
</svg>
