<svg width="144" height="39" viewBox="0 0 144 39" fill="none" xmlns="http://www.w3.org/2000/svg">
<path d="M17.82 26.01H0V20.31H18.29C21.04 20.31 22.18 18.65 22.18 17.05C22.18 14.05 19.59 13.22 16.9 14.51C14.67 15.55 13.38 16.12 10.94 17C6.02 18.81 0.00999832 15.6 0.00999832 9.75C0.00999832 3.9 3.78 0.1 9.69 0.1H27.61V5.59H9.58C7.09 5.59 5.8 7.4 5.8 9.11C5.8 11.65 8.29 12.58 10.88 11.54C12.85 10.76 15.33 9.67 17.25 8.95C22.12 7.09 27.82 10.45 27.82 16.62C27.82 22.79 23.93 26 17.82 26M100.97 20.51C96.83 20.51 93.51 17.14 93.51 13.05C93.51 8.96 96.83 5.44 100.97 5.44C105.11 5.44 108.38 8.81 108.38 13.05C108.38 17.29 105.12 20.51 100.97 20.51ZM100.97 0.05C93.56 0.05 87.76 5.7 87.76 13C87.76 20.3 93.2 26 100.19 26C103.61 26 106.61 24.6 108.63 22.22V25.95H114.12V13C114.12 5.59 108.47 0.05 100.96 0.05M143.03 0H137.28V12.95C137.28 17.25 134.64 20.41 130.8 20.41C126.96 20.41 124.58 17.72 124.58 13.31V0H118.93V13.57C118.93 21.24 123.13 25.8 130.28 25.8C133.29 25.8 135.72 24.71 137.32 22.64V23.21C137.32 28.44 134.58 31.65 130.07 31.65C127.06 31.65 124.58 30.2 123.18 27.76L122.97 27.4L118.15 29.99L118.31 30.4C120.54 34.7 124.68 37.03 130.23 37.03C138.05 37.03 143.03 31.59 143.03 23.15V0ZM76.3 19.48L80.77 0.1H86.52L81.6 21.34C80.93 24.29 78.75 26.05 75.9 26.05C73.21 26.05 71.24 24.44 70.46 21.39L66.63 5.9C66.53 5.54 66.42 5.38 66.22 5.38C66.02 5.38 65.91 5.53 65.8 5.9L61.86 21.39C61.08 24.45 59.17 26.05 56.42 26.05C53.67 26.05 51.5 24.44 50.77 21.34L45.9 0.15H51.7L56 19.47C56.1 19.83 56.21 19.99 56.42 19.99C56.63 19.99 56.73 19.84 56.83 19.47L60.56 4.65C61.34 1.65 63.36 0.04 66.21 0.04C69.06 0.04 71.13 1.59 71.86 4.6L75.49 19.47C75.59 19.83 75.7 19.99 75.91 19.99C76.12 19.99 76.22 19.84 76.32 19.47" fill="#292647"/>
<path d="M38.02 17.35C40.39 17.35 42.32 15.42 42.32 13C42.32 10.58 40.39 8.69995 38.02 8.69995C35.65 8.69995 33.67 10.63 33.67 13C33.67 15.37 35.6 17.35 38.02 17.35Z" fill="#78BEBA"/>
<path d="M52.3 35.1701C52.3 34.4901 51.77 33.9301 51.08 33.9301C50.39 33.9301 49.85 34.4901 49.85 35.1701C49.85 35.8501 50.38 36.4101 51.08 36.4101C51.78 36.4101 52.3 35.8501 52.3 35.1701ZM49.1 35.1701V31.6001H49.85V33.7701C50.15 33.4401 50.61 33.2201 51.11 33.2201C52.24 33.2201 53.05 34.0501 53.05 35.1801C53.05 36.2501 52.2 37.1201 51.08 37.1201C49.96 37.1201 49.1 36.2801 49.1 35.1801" fill="#292647"/>
<path d="M53.74 37.8401L54.36 37.5001C54.57 37.9001 54.99 38.1401 55.5 38.1401C56.29 38.1401 56.7 37.5501 56.7 36.7401V36.4201C56.48 36.8401 56.09 37.0901 55.53 37.0901C54.39 37.0901 53.84 36.3401 53.84 35.2501V33.3201H54.58V35.2101C54.58 35.9101 54.94 36.3901 55.62 36.3901C56.3 36.3901 56.7 35.8401 56.7 35.1601V33.3201H57.46V36.7401C57.46 37.9801 56.73 38.8401 55.53 38.8401C54.74 38.8401 54.09 38.5101 53.76 37.8501" fill="#292647"/>
<path d="M60.63 36.0301L61.28 35.7101C61.48 36.1501 61.91 36.3801 62.51 36.3801C63.11 36.3801 63.56 36.1001 63.56 35.6001C63.56 35.0401 63.04 34.9401 62.45 34.8301C61.68 34.6801 60.74 34.4301 60.74 33.3501C60.74 32.5101 61.5 31.8701 62.47 31.8701C63.24 31.8701 63.93 32.2301 64.24 32.9301L63.59 33.2601C63.39 32.8401 63 32.5801 62.44 32.5801C61.92 32.5801 61.51 32.8801 61.51 33.3201C61.51 33.8701 62.05 33.9901 62.66 34.1101C63.42 34.2601 64.34 34.5101 64.34 35.5901C64.34 36.4801 63.54 37.1101 62.52 37.1101C61.66 37.1101 60.94 36.7201 60.64 36.0301" fill="#292647"/>
<path d="M66.13 32.66V34.84H66.99C67.82 34.84 68.42 34.51 68.42 33.74C68.42 32.97 67.84 32.66 66.99 32.66H66.13ZM65.36 37.0299V31.95H66.97C68.33 31.95 69.22 32.56 69.22 33.75C69.22 34.94 68.32 35.57 67.01 35.57H66.13V37.0299H65.36Z" fill="#292647"/>
<path d="M73.16 31.95H72.39V37.0299H73.16V31.95Z" fill="#292647"/>
<path d="M74.48 37.0299V32.5899C74.48 32.1299 74.78 31.8599 75.17 31.8599C75.48 31.8599 75.69 31.9799 75.84 32.2499L77.98 36.2499C78 36.3199 78.02 36.3499 78.06 36.3499C78.09 36.3499 78.1 36.3399 78.1 36.2899V31.9599H78.84V36.4099C78.84 36.8699 78.51 37.1299 78.16 37.1299C77.87 37.1299 77.62 37.0099 77.48 36.7399L75.35 32.7399C75.34 32.6799 75.32 32.6499 75.28 32.6499C75.23 32.6499 75.22 32.6799 75.22 32.7399V37.0499H74.49L74.48 37.0299Z" fill="#292647"/>
<path d="M81.92 32.66H80.93V36.32H81.88C82.99 36.32 83.84 35.6199 83.84 34.4599C83.84 33.3799 83.05 32.66 81.91 32.66M81.87 37.0299H80.15V31.95H81.91C83.54 31.95 84.63 32.96 84.63 34.47C84.63 36.06 83.44 37.0299 81.87 37.0299Z" fill="#292647"/>
<path d="M85.54 34.82V31.95H86.31V34.7999C86.31 35.8099 86.74 36.3699 87.63 36.3699C88.52 36.3699 88.95 35.8099 88.95 34.7999V31.95H89.72V34.82C89.72 36.2299 89.05 37.0999 87.63 37.0999C86.21 37.0999 85.54 36.2299 85.54 34.82Z" fill="#292647"/>
<path d="M90.62 36.0301L91.27 35.7101C91.47 36.1501 91.9 36.3801 92.5 36.3801C93.1 36.3801 93.55 36.1001 93.55 35.6001C93.55 35.0401 93.03 34.9401 92.44 34.8301C91.67 34.6801 90.73 34.4301 90.73 33.3501C90.73 32.5101 91.49 31.8701 92.46 31.8701C93.23 31.8701 93.92 32.2301 94.23 32.9301L93.58 33.2601C93.38 32.8401 92.99 32.5801 92.43 32.5801C91.91 32.5801 91.5 32.8801 91.5 33.3201C91.5 33.8701 92.04 33.9901 92.65 34.1101C93.41 34.2601 94.33 34.5101 94.33 35.5901C94.33 36.4801 93.53 37.1101 92.51 37.1101C91.65 37.1101 90.93 36.7201 90.63 36.0301" fill="#292647"/>
<path d="M98.64 32.66H97.07V37.0299H96.3V32.66H94.75V31.95H98.64V32.66Z" fill="#292647"/>
<path d="M100.12 32.66V34.49H101.1C101.75 34.49 102.23 34.17 102.23 33.56C102.23 32.95 101.73 32.6699 101.12 32.6699H100.12V32.66ZM99.35 37.0299V31.95H101.12C102.2 31.95 103.04 32.44 103.04 33.49C103.04 34.21 102.6 34.73 101.89 34.88C102.3 35.08 102.52 35.49 102.81 36.09L103.27 37.02H102.44L102.01 36.16C101.71 35.56 101.46 35.1699 100.74 35.1699H100.11V37.02H99.34L99.35 37.0299Z" fill="#292647"/>
<path d="M104.98 31.95H104.21V37.0299H104.98V31.95Z" fill="#292647"/>
<path d="M107 37.0299C106.48 37.0299 106.29 36.77 106.29 36.33V32.65C106.29 32.22 106.48 31.95 107 31.95H109.79V32.65H107.06V34.13H109.64V34.84H107.06V36.33H109.84V37.0299H107Z" fill="#292647"/>
<path d="M111.63 36.32H114.15V37.0299H111.56C111.04 37.0299 110.85 36.76 110.85 36.33V31.95H111.62V36.32H111.63Z" fill="#292647"/>
</svg>
